.
 
http://www.scenetime.com    -  Hottest private tracker on the net. !!!

New release on http://www.scenetime.com

        Seed back for speed


...................................NFO:.................................................








































          
          
              
              
                    
                    
                    
                    

Saint.2010.DUBBED.VODRiP.XviD-SiC

Poster:
[img]http://img585.imageshack.us/img585/9030/1286313635postersint.jpg[/img]

IMDB Link: 
http://www.imdb.com/title/tt1167675/

Description:
A horror film that depicts St. Nicholas as a murderous bishop who kidnaps and murders children when there is a full moon on December 5.  

MediaInfo:
General
Complete name                    : Saint.2010.DUBBED.VODRiP.XviD-SiC.avi
Format                           : AVI
Format/Info                      : Audio Video Interleave
File size                        : 1.29 GiB
Duration                         : 1h 26mn
Overall bit rate                 : 2 143 Kbps
Writing library                  : VirtualDub build 32842/release

Video
ID                               : 0
Format                           : MPEG-4 Visual
Format profile                   : Advanced Simple@L5
Format settings, BVOP            : 1
Format settings, QPel            : No
Format settings, GMC             : No warppoints
Format settings, Matrix          : Default (H.263)
Codec ID                         : XVID
Codec ID/Hint                    : XviD
Duration                         : 1h 26mn
Bit rate                         : 1 941 Kbps
Width                            : 720 pixels
Height                           : 304 pixels
Display aspect ratio             : 2.35:1
Frame rate                       : 25.000 fps
Color space                      : YUV
Chroma subsampling               : 4:2:0
Bit depth                        : 8 bits
Scan type                        : Progressive
Compression mode                 : Lossy
Bits/(Pixel*Frame)               : 0.355
Stream size                      : 1.17 GiB (91%)
Writing library                  : XviD 1.2.1 (UTC 2008-12-04)

Audio
ID                               : 1
Format                           : AC-3
Format/Info                      : Audio Coding 3
Mode extension                   : CM (complete main)
Codec ID                         : 2000
Duration                         : 1h 26mn
Bit rate mode                    : Constant
Bit rate                         : 192 Kbps
Channel(s)                       : 2 channels
Channel positions                : Front: L R
Sampling rate                    : 48.0 KHz
Bit depth                        : 16 bits
Compression mode                 : Lossy
Delay relative to video          : 8ms
Stream size                      : 119 MiB (9%)
Alignment                        : Split accross interleaves
Interleave, duration             : 40 ms (1.00 video frame)
Interleave, preload duration     : 500 ms

Screenshots:
[img]http://img828.imageshack.us/img828/2237/vlcsnap2011091219h14m18.png[/img]
[img]http://img40.imageshack.us/img40/1369/vlcsnap2011091219h14m22.png[/img]
[img]http://img26.imageshack.us/img26/5017/vlcsnap2011091219h14m34.png[/img]
[img]http://img607.imageshack.us/img607/2600/vlcsnap2011091219h14m38.png[/img]
[img]http://img43.imageshack.us/img43/4281/vlcsnap2011091219h14m45.png[/img]


Note : Quality is not as good as I would like it to be. The VOD stream was SD, with no HD available. It's definitely watchable, but there is some video noise. This is a Dutch language film, but this is an English dubbed version. Personally, I hate dubbed films. It ruins whatever impact they may have. Some people like them though, for whatever reason. so it is what it is. Pretty good flick for this time of year.

Source: Our own

Enjoy!

Respects to CaptainHomey, Cyanide, CM8, Rx, THC, ELEKTRI4KA, 
Killerhz, PA, YeFsTe, BoxSlots, MrRep and everyone in the struggle...